<svg width="24" height="24" viewBox="0 0 24 24" fill="none" xmlns="http://www.w3.org/2000/svg">
<path d="M10.3047 15.4922C10.3203 14.5625 10.4258 13.8281 10.6211 13.2891C10.8164 12.75 11.2148 12.1523 11.8164 11.4961L13.3516 9.91406C14.0078 9.17188 14.3359 8.375 14.3359 7.52344C14.3359 6.70312 14.1211 6.0625 13.6914 5.60156C13.2617 5.13281 12.6367 4.89844 11.8164 4.89844C11.0195 4.89844 10.3789 5.10938 9.89453 5.53125C9.41016 5.95312 9.16797 6.51953 9.16797 7.23047H7C7.01562 5.96484 7.46484 4.94531 8.34766 4.17188C9.23828 3.39062 10.3945 3 11.8164 3C13.293 3 14.4414 3.39844 15.2617 4.19531C16.0898 4.98438 16.5039 6.07031 16.5039 7.45312C16.5039 8.82031 15.8711 10.168 14.6055 11.4961L13.3281 12.7617C12.7578 13.3945 12.4727 14.3047 12.4727 15.4922H10.3047ZM10.2109 19.207C10.2109 18.8555 10.3164 18.5625 10.5273 18.3281C10.7461 18.0859 11.0664 17.9648 11.4883 17.9648C11.9102 17.9648 12.2305 18.0859 12.4492 18.3281C12.668 18.5625 12.7773 18.8555 12.7773 19.207C12.7773 19.5586 12.668 19.8516 12.4492 20.0859C12.2305 20.3125 11.9102 20.4258 11.4883 20.4258C11.0664 20.4258 10.7461 20.3125 10.5273 20.0859C10.3164 19.8516 10.2109 19.5586 10.2109 19.207Z" fill="white"/>
</svg>
