<svg width="24" height="24" viewBox="0 0 24 24" fill="none" xmlns="http://www.w3.org/2000/svg">
<path d="M17.9998 4C19.1998 4 20.2998 4.5 21.1998 5.3C22.0998 6.2 22.4998 7.3 22.4998 8.5C22.4998 9.7 22.0998 10.8 21.1998 11.7L16.6998 16.2L15.2998 14.8L19.7998 10.3C20.7998 9.3 20.7998 7.7 19.7998 6.7C18.7998 5.7 17.1998 5.7 16.1998 6.7L11.6998 11.2L10.2998 9.8L14.7998 5.3C15.5998 4.5 16.7998 4 17.9998 4Z" fill="white"/>
<path d="M4.7002 16.7998C5.7002 17.7998 7.3002 17.7998 8.3002 16.7998L12.8002 12.2998L14.2002 13.6998L9.7002 18.1998C8.8002 19.0998 7.7002 19.4998 6.5002 19.4998C5.3002 19.4998 4.2002 19.0998 3.3002 18.1998C1.5002 16.3998 1.5002 13.5998 3.3002 11.7998L7.8002 7.2998L9.2002 8.6998L4.7002 13.1998C3.7002 14.1998 3.7002 15.7998 4.7002 16.7998Z" fill="white"/>
</svg>
