<svg width="20" height="20" viewBox="0 0 20 20" fill="none" xmlns="http://www.w3.org/2000/svg">
<path fill-rule="evenodd" clip-rule="evenodd" d="M10.0007 18.3337C14.6031 18.3337 18.334 14.6027 18.334 10.0003C18.334 5.39795 14.6031 1.66699 10.0007 1.66699C5.39832 1.66699 1.66736 5.39795 1.66736 10.0003C1.66736 14.6027 5.39832 18.3337 10.0007 18.3337ZM10.0007 16.667C13.6826 16.667 16.6674 13.6822 16.6674 10.0003C16.6674 6.31843 13.6826 3.33366 10.0007 3.33366C6.31879 3.33366 3.33403 6.31843 3.33403 10.0003C3.33403 13.6822 6.31879 16.667 10.0007 16.667Z" fill="white" fill-opacity="0.2"/>
<path d="M10 1.6665C5.39763 1.6665 1.66667 5.39746 1.66667 9.99984C1.66667 14.6022 5.39763 18.3332 10 18.3332C14.6024 18.3332 18.3333 14.6022 18.3333 9.99984H16.6667C16.6667 13.6817 13.6819 16.6665 10 16.6665C6.31811 16.6665 3.33334 13.6817 3.33334 9.99984C3.33334 6.31794 6.31811 3.33317 10 3.33317V1.6665Z" fill="white"/>
</svg>
