<svg width="134" height="21" viewBox="0 0 134 21" fill="none" xmlns="http://www.w3.org/2000/svg">
<path d="M41.0795 1.24072H37.2558L28.9266 10.1132V1.2707H25.8616V20.4973H28.9266V11.1838L37.2858 20.4973H41.2467L32.3346 10.5543L41.0795 1.24072Z" fill="white"/>
<path d="M51.5007 7.04411C50.4075 6.41893 49.1772 6.10205 47.8012 6.10205C46.3994 6.10205 45.1434 6.41464 44.0331 7.04411C42.9228 7.67358 42.0612 8.54285 41.4396 9.66047C40.8223 10.7781 40.5137 12.0456 40.5137 13.463C40.5137 14.8804 40.8223 16.1521 41.4353 17.2655C42.0483 18.3831 42.91 19.2567 44.0117 19.8818C45.1177 20.507 46.3694 20.8239 47.7712 20.8239C49.1558 20.8239 50.3947 20.5113 51.4921 19.8818C52.5852 19.2567 53.4383 18.3831 54.047 17.2655C54.6557 16.1479 54.9601 14.8804 54.9601 13.463C54.9601 12.0456 54.6557 10.7781 54.047 9.66047C53.4426 8.54285 52.5895 7.67358 51.5007 7.04411ZM51.3077 15.8909C50.9691 16.5932 50.4933 17.137 49.8803 17.531C49.2672 17.9249 48.5599 18.1219 47.7626 18.1219C46.9567 18.1219 46.2408 17.9249 45.6192 17.531C44.9976 17.137 44.5132 16.5889 44.1703 15.8909C43.8273 15.1887 43.6559 14.3836 43.6559 13.4673C43.6559 12.5509 43.8316 11.7459 44.1789 11.0436C44.5261 10.3413 45.0105 9.7975 45.6364 9.40355C46.2579 9.0096 46.9781 8.81262 47.7969 8.81262C48.5857 8.81262 49.2887 9.0096 49.9017 9.40355C50.5147 9.7975 50.9905 10.3456 51.3249 11.0436C51.6593 11.7459 51.8264 12.5509 51.8264 13.4673C51.8179 14.3793 51.6464 15.1887 51.3077 15.8909Z" fill="white"/>
<path d="M61.2241 2.91846H58.2534V5.30787C58.2534 5.68469 58.1633 5.96731 57.979 6.15144C57.7947 6.33986 57.5118 6.43406 57.126 6.43406H55.6685V8.9605H58.1976V16.527C58.1976 17.3149 58.3563 18.0086 58.6778 18.6081C58.9993 19.2076 59.4537 19.6743 60.0452 20.004C60.6368 20.3338 61.3356 20.4965 62.1415 20.4965H64.4092V17.8587H62.703C62.2615 17.8587 61.9057 17.7045 61.6313 17.4005C61.357 17.0922 61.2198 16.6897 61.2198 16.1844V8.9605H64.4906V6.43406H61.2198V2.91846H61.2241Z" fill="white"/>
<path d="M69.8789 0.5H66.8567V20.4974H69.8789V0.5Z" fill="white"/>
<path d="M76.3444 0.524902H73.2922V3.62942H76.3444V0.524902Z" fill="white"/>
<path d="M76.3144 6.43555H73.2922V20.498H76.3144V6.43555Z" fill="white"/>
<path d="M91.6818 8.75511C91.2574 7.9201 90.6572 7.27351 89.8813 6.80676C89.1054 6.34001 88.2009 6.10449 87.1635 6.10449C86.0618 6.10449 85.0973 6.37426 84.27 6.90953C83.6098 7.33346 83.0782 7.90726 82.6581 8.6138L82.641 6.43421H79.7517V20.4966H82.7782V12.6261C82.7782 11.8682 82.9239 11.1916 83.2111 10.6007C83.4983 10.0098 83.9056 9.55158 84.4371 9.22614C84.9644 8.9007 85.5774 8.73798 86.2847 8.73798C86.9192 8.73798 87.4593 8.87073 87.9137 9.13622C88.3681 9.40171 88.711 9.78282 88.9425 10.2753C89.1783 10.7677 89.294 11.3586 89.294 12.048V20.4966H92.3205V11.6241C92.3205 10.545 92.1062 9.58584 91.6818 8.75511Z" fill="white"/>
<path d="M19.2594 20.2911H0V1.03174H19.2594L9.43027 10.5221L19.2594 20.2911Z" fill="url(#paint0_radial_1769_36932)"/>
<path d="M100.623 4.04545V13.5H99.4782V5.24574H99.4228L97.1146 6.77841V5.61506L99.4782 4.04545H100.623ZM103.596 13.5739C103.368 13.5739 103.173 13.4923 103.01 13.3292C102.847 13.1661 102.765 12.9706 102.765 12.7429C102.765 12.5152 102.847 12.3197 103.01 12.1566C103.173 11.9935 103.368 11.9119 103.596 11.9119C103.824 11.9119 104.019 11.9935 104.182 12.1566C104.346 12.3197 104.427 12.5152 104.427 12.7429C104.427 12.8937 104.389 13.0322 104.312 13.1584C104.238 13.2846 104.138 13.3861 104.012 13.4631C103.889 13.5369 103.75 13.5739 103.596 13.5739ZM109.203 13.6293C108.593 13.6293 108.05 13.5246 107.573 13.3153C107.099 13.1061 106.722 12.8152 106.442 12.4428C106.165 12.0674 106.014 11.6319 105.99 11.1364H107.153C107.178 11.4411 107.282 11.7042 107.467 11.9258C107.652 12.1443 107.893 12.3136 108.192 12.4336C108.49 12.5536 108.821 12.6136 109.184 12.6136C109.591 12.6136 109.951 12.5429 110.265 12.4013C110.579 12.2597 110.825 12.0627 111.003 11.8104C111.182 11.558 111.271 11.2656 111.271 10.9332C111.271 10.5855 111.185 10.2792 111.012 10.0146C110.84 9.7468 110.588 9.53752 110.255 9.38672C109.923 9.23591 109.517 9.16051 109.037 9.16051H108.28V8.14489H109.037C109.412 8.14489 109.741 8.07718 110.025 7.94176C110.311 7.80634 110.534 7.61553 110.694 7.36932C110.857 7.12311 110.939 6.83381 110.939 6.50142C110.939 6.18134 110.868 5.90282 110.726 5.66584C110.585 5.42886 110.385 5.2442 110.126 5.11186C109.871 4.97952 109.569 4.91335 109.221 4.91335C108.895 4.91335 108.587 4.97337 108.298 5.09339C108.012 5.21035 107.778 5.38116 107.596 5.60582C107.415 5.82741 107.316 6.09517 107.301 6.40909H106.193C106.211 5.91359 106.361 5.47964 106.641 5.10724C106.921 4.73177 107.287 4.43939 107.739 4.23011C108.195 4.02083 108.695 3.91619 109.24 3.91619C109.825 3.91619 110.326 4.03468 110.745 4.27166C111.163 4.50556 111.485 4.81487 111.71 5.19957C111.934 5.58428 112.047 5.99976 112.047 6.44602C112.047 6.97846 111.907 7.43241 111.626 7.80788C111.349 8.18336 110.972 8.44342 110.495 8.58807V8.66193C111.093 8.76042 111.559 9.01432 111.894 9.42365C112.23 9.8299 112.397 10.3331 112.397 10.9332C112.397 11.4472 112.257 11.9089 111.977 12.3182C111.7 12.7244 111.322 13.0445 110.842 13.2784C110.362 13.5123 109.815 13.6293 109.203 13.6293ZM114.806 13.5739C114.578 13.5739 114.383 13.4923 114.22 13.3292C114.057 13.1661 113.975 12.9706 113.975 12.7429C113.975 12.5152 114.057 12.3197 114.22 12.1566C114.383 11.9935 114.578 11.9119 114.806 11.9119C115.034 11.9119 115.229 11.9935 115.392 12.1566C115.555 12.3197 115.637 12.5152 115.637 12.7429C115.637 12.8937 115.599 13.0322 115.522 13.1584C115.448 13.2846 115.348 13.3861 115.222 13.4631C115.098 13.5369 114.96 13.5739 114.806 13.5739ZM120.338 13.6293C119.796 13.6293 119.308 13.5215 118.874 13.3061C118.44 13.0907 118.093 12.7952 117.831 12.4197C117.569 12.0443 117.426 11.6165 117.402 11.1364H118.51C118.553 11.5642 118.747 11.9181 119.091 12.1982C119.439 12.4751 119.855 12.6136 120.338 12.6136C120.726 12.6136 121.07 12.5228 121.372 12.3413C121.677 12.1597 121.915 11.9104 122.087 11.5934C122.263 11.2733 122.351 10.9117 122.351 10.5085C122.351 10.0961 122.26 9.72834 122.078 9.40518C121.9 9.07895 121.653 8.82197 121.34 8.63423C121.026 8.4465 120.667 8.35109 120.264 8.34801C119.975 8.34493 119.678 8.38956 119.373 8.48189C119.068 8.57114 118.817 8.68655 118.62 8.82812L117.549 8.69886L118.122 4.04545H123.034V5.06108H119.082L118.75 7.84943H118.805C118.999 7.69555 119.242 7.56783 119.535 7.46626C119.827 7.3647 120.132 7.31392 120.449 7.31392C121.027 7.31392 121.543 7.45241 121.995 7.7294C122.451 8.00331 122.808 8.37879 123.066 8.85582C123.328 9.33286 123.459 9.8776 123.459 10.4901C123.459 11.0933 123.323 11.6319 123.052 12.1058C122.785 12.5767 122.415 12.9491 121.944 13.223C121.473 13.4938 120.938 13.6293 120.338 13.6293ZM128.376 13.6293C127.681 13.6293 127.088 13.44 126.599 13.0614C126.11 12.6798 125.736 12.1274 125.477 11.4041C125.219 10.6778 125.089 9.80066 125.089 8.77273C125.089 7.75095 125.219 6.87843 125.477 6.15518C125.739 5.42886 126.114 4.87488 126.603 4.49325C127.096 4.10855 127.687 3.91619 128.376 3.91619C129.066 3.91619 129.655 4.10855 130.144 4.49325C130.637 4.87488 131.012 5.42886 131.271 6.15518C131.532 6.87843 131.663 7.75095 131.663 8.77273C131.663 9.80066 131.534 10.6778 131.275 11.4041C131.017 12.1274 130.643 12.6798 130.154 13.0614C129.664 13.44 129.072 13.6293 128.376 13.6293ZM128.376 12.6136C129.066 12.6136 129.601 12.2812 129.983 11.6165C130.364 10.9517 130.555 10.0038 130.555 8.77273C130.555 7.95407 130.467 7.25698 130.292 6.68146C130.12 6.10594 129.87 5.66738 129.544 5.36577C129.221 5.06416 128.832 4.91335 128.376 4.91335C127.693 4.91335 127.159 5.25035 126.774 5.92436C126.39 6.59529 126.197 7.54474 126.197 8.77273C126.197 9.59138 126.283 10.2869 126.456 10.8594C126.628 11.4318 126.876 11.8673 127.199 12.1658C127.525 12.4644 127.918 12.6136 128.376 12.6136Z" fill="white" fill-opacity="0.7"/>
<defs>
<radialGradient id="paint0_radial_1769_36932" cx="0" cy="0" r="1" gradientUnits="userSpaceOnUse" gradientTransform="translate(18.6194 1.82347) scale(22.0614)">
<stop offset="0.00343514" stop-color="#EF4857"/>
<stop offset="0.4689" stop-color="#D211EC"/>
<stop offset="1" stop-color="#7F52FF"/>
</radialGradient>
</defs>
</svg>
