<svg width="24" height="24" viewBox="0 0 24 24" fill="none" xmlns="http://www.w3.org/2000/svg">
<path d="M18.7461 9.6618C18.4337 8.22139 17.7107 6.91485 16.6732 5.91589C15.6356 4.91692 14.3327 4.27287 12.9377 4.06937C11.5428 3.86587 10.1218 4.11257 8.86368 4.77665C7.60561 5.44073 6.57008 6.49074 5.89477 7.78706C4.50702 7.91271 3.22055 8.60051 2.30832 9.70453C1.39608 10.8086 0.929853 12.2419 1.00856 13.7005C1.08728 15.1591 1.70473 16.5282 2.72992 17.5172C3.7551 18.5062 5.10735 19.0373 6.49975 18.998H18.4161C19.5908 19.0339 20.7314 18.5815 21.5895 17.7393C22.4475 16.8971 22.9534 15.7333 22.9969 14.5016C23.0405 13.2699 22.6181 12.07 21.8219 11.1635C21.0257 10.2569 19.9201 9.71716 18.7461 9.6618H18.7461Z" fill="white"/>
</svg>
